<?xml version="1.0" encoding="utf-8"?>
<!-- Generator: Adobe Illustrator 24.0.2, SVG Export Plug-In . SVG Version: 6.00 Build 0)  -->
<svg version="1.1" id="圖層_1" xmlns="http://www.w3.org/2000/svg" xmlns:xlink="http://www.w3.org/1999/xlink" x="0px" y="0px"
	 viewBox="0 0 60 60" style="enable-background:new 0 0 60 60;" xml:space="preserve">
<style type="text/css">
	.st0{fill:none;stroke:#FFFFFF;stroke-width:3;stroke-linecap:round;stroke-linejoin:round;stroke-miterlimit:22.9256;}
</style>
<path class="st0" d="M39.2,16.2v38.1c0,1.1-0.9,2-2,2H4.3c-1.1,0-2-0.9-2-2V5.2c0-1.1,0.9-2,2-2h21.9"/>
<path class="st0" d="M39.2,16.2h-11c-1.1,0-2-0.9-2-2v-11L39.2,16.2L39.2,16.2z"/>
<path class="st0" d="M46.2,9.9h7.1v36.9c0,7.4-7.1,7.4-7.1,0V9.9L46.2,9.9z"/>
<polyline class="st0" points="58,29.5 58,15.7 46.2,15.7 "/>
<line class="st0" x1="49.7" y1="56.3" x2="49.7" y2="52.3"/>
<line class="st0" x1="10.2" y1="13.9" x2="20.7" y2="13.9"/>
<line class="st0" x1="10.2" y1="23.8" x2="31.2" y2="23.8"/>
<line class="st0" x1="10.2" y1="29.6" x2="31.2" y2="29.6"/>
<line class="st0" x1="10.2" y1="35.4" x2="31.2" y2="35.4"/>
<line class="st0" x1="10.2" y1="41.2" x2="20.7" y2="41.2"/>
</svg>
