<?xml version="1.0" encoding="utf-8"?>
<!-- Generator: Adobe Illustrator 24.0.2, SVG Export Plug-In . SVG Version: 6.00 Build 0)  -->
<svg version="1.1" id="圖層_1" xmlns="http://www.w3.org/2000/svg" xmlns:xlink="http://www.w3.org/1999/xlink" x="0px" y="0px"
	 viewBox="0 0 60 60" style="enable-background:new 0 0 60 60;" xml:space="preserve">
<style type="text/css">
	.st0{fill:none;stroke:#FFFFFF;stroke-width:3;stroke-linecap:round;stroke-linejoin:round;stroke-miterlimit:22.9256;}
</style>
<path class="st0" d="M31.4,40.8l7.4-3.9C40.6,36,44,34.5,44,38l1.3-0.9c3.5-2.4,6.2-0.7,4.9,2.6c6.2-4.5,8.5,1.2,5.7,2.6L42,51.2
	l-5.9,3.7c-4.1,2.6-9.6,2.7-11.2,1.7c-8.8-2.3-11.3-4.4-18.9-3.4"/>
<path class="st0" d="M2.4,37.6l9-3.7c2.3-0.9,4.9-0.7,5.9,0c1.6,1.2,3.3,2.4,4.9,3.6c6.8,5,7.4,3.8,15.4,4.3c1.8,0.1,2.9,3,0,4.1
	c-7.5,3.4-12.1,1.9-18.9-1.6"/>
<line class="st0" x1="29.7" y1="6.6" x2="29.7" y2="9.8"/>
<line class="st0" x1="29.7" y1="23.4" x2="29.7" y2="26.6"/>
<path class="st0" d="M29.7,2c8.1,0,14.6,6.5,14.6,14.6c0,8.1-6.5,14.6-14.6,14.6c-8.1,0-14.6-6.5-14.6-14.6C15.1,8.5,21.6,2,29.7,2
	L29.7,2z"/>
<path class="st0" d="M34.2,11.4c-1.4-0.5-2.7-0.9-4.1-1.1c-7-0.8-7.9,6.3-0.4,6.3c7.3,0,6.6,7.1-0.5,6.3c-1.3-0.1-2.6-0.6-4-1.1"/>
</svg>
