<?xml version="1.0" encoding="utf-8"?>
<!-- Generator: Adobe Illustrator 24.0.2, SVG Export Plug-In . SVG Version: 6.00 Build 0)  -->
<svg version="1.1" xmlns="http://www.w3.org/2000/svg" xmlns:xlink="http://www.w3.org/1999/xlink" x="0px" y="0px"
	 viewBox="0 0 60 60" style="enable-background:new 0 0 60 60;" xml:space="preserve">
<style type="text/css">
	.st0{display:none;}
	
		.st1{display:inline;fill:none;stroke:#505050;stroke-width:1.44;stroke-linecap:round;stroke-linejoin:round;stroke-miterlimit:10;}
	.st2{fill:none;stroke:#FFFFFF;stroke-width:3;stroke-linecap:round;stroke-linejoin:round;stroke-miterlimit:10;}
</style>
<g id="圖層_1" class="st0">
	<path class="st1" d="M22,21.1V5.6c0-2,1.6-3.6,3.6-3.6H53c2,0,3.6,1.6,3.6,3.6v31c0,2-1.6,3.6-3.6,3.6H23.2"/>
	<polyline class="st1" points="27.7,21.1 27.7,13.7 51.8,13.7 51.8,34.2 27.7,34.2 27.7,30.6 	"/>
	<path class="st1" d="M19.6,58V28.2h6c3.6,0,4.8-2.1,4.8-4.8c-1.9,0-19.3,0-21.4,0c-2.2,0-6,1.8-6,7.1v8.3c0,2.6,2.2,4.8,4.8,4.8"/>
	<line class="st1" x1="13.7" y1="41.3" x2="13.7" y2="58"/>
	<line class="st1" x1="7.7" y1="30.6" x2="7.7" y2="58"/>
	<path class="st1" d="M14.2,19.9h-2.3c-1.7,0-3-1.3-3-3v-4.7c0-1.7,1.3-3,3-3h2.3c1.7,0,3,1.3,3,3v4.7
		C17.2,18.5,15.9,19.9,14.2,19.9z"/>
	<line class="st1" x1="32.8" y1="18.5" x2="47" y2="18.5"/>
	<line class="st1" x1="32.8" y1="23.5" x2="47" y2="23.5"/>
	<line class="st1" x1="32.8" y1="28.5" x2="47" y2="28.5"/>
	<rect x="27.7" y="6.5" class="st1" width="24" height="4"/>
</g>
<g id="圖層_2">
	<path class="st2" d="M30.5,55.5V43.3c0-5.5-3.8-7.6-7.6-7.6H10.6c-3.9,0-7.6,2.2-7.6,7.6v12.2"/>
	<line class="st2" x1="24.4" y1="55.5" x2="24.4" y2="43.3"/>
	<line class="st2" x1="9" y1="43.3" x2="9" y2="55.3"/>
	<path class="st2" d="M16.8,29.6c3.6,0,6.1-2.5,6.1-6.1v-3.1c0-3.6-2.5-6.1-6.1-6.1c-3.6,0-6.1,2.5-6.1,6.1v3.1
		C10.6,27.1,13.2,29.6,16.8,29.6z"/>
	<path class="st2" d="M29,6.7V25c0,0.8,0.7,1.5,1.5,1.5h4.6v6.6c0,1.4,1.8,2.1,2.7,1l6.5-7.6h12.2c0.8,0,1.5-0.7,1.5-1.5V6.7
		c0-0.8-0.7-1.5-1.5-1.5h-26C29.7,5.1,29,5.8,29,6.7z"/>
</g>
</svg>
