<?xml version="1.0" encoding="utf-8"?>
<!-- Generator: Adobe Illustrator 24.0.2, SVG Export Plug-In . SVG Version: 6.00 Build 0)  -->
<svg version="1.1" id="圖層_1" xmlns="http://www.w3.org/2000/svg" xmlns:xlink="http://www.w3.org/1999/xlink" x="0px" y="0px"
	 viewBox="0 0 60 60" style="enable-background:new 0 0 60 60;" xml:space="preserve">
<style type="text/css">
	.st0{fill:none;stroke:#FFFFFF;stroke-width:3;stroke-linecap:round;stroke-linejoin:round;stroke-miterlimit:22.9256;}
</style>
<path class="st0" d="M45.8,26.9c0.3-2,0.1-3.9-0.4-5.6c-0.6-2.2-1.8-4.1-3.3-5.6c-1.6-1.6-3.5-2.6-5.6-3c-1.2-0.2-2.5-0.1-3.7,0.2"
	/>
<path class="st0" d="M54.9,31.4c1.5-4.7,1.4-9.5,0-13.8c-1.1-3.3-2.9-6.3-5.2-8.7c-2.3-2.5-5.2-4.4-8.4-5.4c-3.5-1.2-7.4-1.3-11.4,0
	"/>
<path class="st0" d="M16.9,21.4c-2.9,2.8-2,9.3,2.1,14.7c4.2,5.5,10.1,8,13.7,5.9"/>
<path class="st0" d="M42.2,54.4c-0.1,0.2-0.8,0.8-3.3,2.6c-4.8,3.6-16.2-3.2-26.2-16.1C2.8,27.9-0.6,15.1,4,11.4
	c2.5-2,3.1-2.5,3.4-2.5"/>
<path class="st0" d="M43.2,52.6l-9.2-12c-0.5-0.7-0.4-1.7,0.3-2.2l4.2-3.2c0.7-0.5,1.7-0.4,2.2,0.3l9.2,12c0.5,0.7,0.4,1.7-0.3,2.2
	l-4.2,3.2C44.7,53.4,43.7,53.3,43.2,52.6L43.2,52.6z"/>
<path class="st0" d="M18.5,20.4l-9.2-12C8.8,7.7,8.9,6.7,9.6,6.2L13.8,3c0.7-0.5,1.7-0.4,2.2,0.3l9.2,12c0.5,0.7,0.4,1.7-0.3,2.2
	l-4.2,3.2C20,21.2,19,21.1,18.5,20.4L18.5,20.4z"/>
</svg>
